<svg width="159" height="38" viewBox="0 0 159 38" fill="none" xmlns="http://www.w3.org/2000/svg">
<g clip-path="url(#clip0_2763_532)">
<path fill-rule="evenodd" clip-rule="evenodd" d="M48.3139 0.091532C48.399 0.265836 48.4565 0.451487 48.4845 0.642261C48.4709 1.49836 48.4059 2.35185 48.4032 3.20796C48.4032 3.87613 48.517 4.54692 48.4845 5.20988C48.4259 5.68373 48.318 6.15069 48.1622 6.60366C48.0635 6.83313 47.9864 7.07074 47.9321 7.3136C47.8265 8.75436 47.7209 10.1847 47.6613 11.6359C47.6397 12.3041 47.7371 12.9748 47.7805 13.643C47.7805 13.7396 47.8292 13.8779 47.7805 13.9327C47.1279 14.6218 47.488 15.4622 47.4041 16.2348C47.4041 16.2818 47.4339 16.334 47.4285 16.381C47.3617 17.4024 47.2913 18.4229 47.2173 19.4426C47.1811 19.5878 47.1656 19.7371 47.1712 19.8863C47.2714 20.2935 47.3689 20.6693 46.8788 20.9303C46.7651 20.993 46.7217 21.2305 46.7082 21.3897C46.5999 22.6086 46.4374 23.8301 46.4374 25.0438C46.4374 26.91 46.1071 28.724 45.7551 30.5406C45.6954 30.9013 45.6683 31.2664 45.6739 31.6316C45.6739 32.7748 45.6739 33.918 45.6955 35.0612C45.6955 35.4762 45.5249 35.9408 45.9663 36.2828C45.9853 36.3111 45.9974 36.3432 46.0016 36.3766C46.0058 36.4101 46.0021 36.444 45.9907 36.4759C45.8658 36.8612 45.7184 37.2394 45.5493 37.6087C45.5019 37.6665 45.44 37.7117 45.3694 37.74C45.2988 37.7683 45.2218 37.7788 45.1459 37.7705C44.8994 37.6791 44.5014 37.5095 44.4906 37.3581C44.3335 35.3196 43.903 33.2968 44.1277 31.2323C44.1954 30.6215 43.9788 29.9847 44.0438 29.3739C44.1846 28.0532 44.4391 26.7482 44.6151 25.4301C44.7018 24.7802 44.7153 24.1251 44.7695 23.4673C44.7884 23.222 44.8236 22.9766 44.8534 22.7313C44.8534 22.666 44.9103 22.5825 44.8832 22.5381C44.3173 21.5959 45.2433 20.7737 45.1134 19.868C45.0998 19.761 45.1377 19.6253 45.0809 19.5496C44.6449 18.9545 44.7207 18.4194 45.1594 17.8426C45.3381 17.6051 45.3435 17.2371 45.3895 16.9239C45.6143 15.4596 45.8417 13.9954 46.034 12.5259C46.1098 11.936 46.0881 11.3357 46.1288 10.7406C46.1667 10.2421 46.2452 9.74618 46.2777 9.24505C46.3156 8.58209 46.2777 7.9113 46.3643 7.25356C46.4216 6.59268 46.5738 5.94266 46.8165 5.32211C47.131 4.57263 47.2644 3.76394 47.2064 2.95739C47.1875 2.35186 47.155 1.74371 47.0954 1.13034C47.0575 0.736222 47.1171 0.44128 47.5666 0.310777C47.6613 0.284676 47.7209 0.151562 47.7994 0.0654297L48.3139 0.091532Z" fill="white"/>
<path fill-rule="evenodd" clip-rule="evenodd" d="M16.33 8.42019C15.9753 8.84042 15.6964 9.15884 15.4283 9.4851C15.2479 9.69053 15.1277 9.93869 15.0801 10.2039C15.0325 10.4691 15.0592 10.7418 15.1576 10.9937C15.4785 12.0891 15.5533 13.2379 15.3769 14.3633C15.1183 16.014 15.1183 17.6927 15.3769 19.3433C15.4875 20.1383 15.5129 20.942 15.4527 21.742C15.3302 23.3359 15.7136 24.9281 16.552 26.307C16.7133 26.5149 16.7907 26.7722 16.7698 27.031C16.7489 27.2899 16.6311 27.5325 16.4383 27.7138C16.2577 27.9373 16.1621 28.2137 16.1675 28.4968C16.1838 29.1154 16.2948 29.7314 16.3435 30.35C16.327 30.5143 16.299 30.6774 16.2596 30.8381C16.2124 31.1099 16.2069 31.3869 16.2434 31.6602C16.4085 32.3571 16.2434 32.6286 15.4744 32.733C14.9112 31.5898 14.8868 30.41 15.1576 29.1937C15.3036 28.6572 15.2329 28.0872 14.9599 27.599C14.8651 27.9096 14.8001 28.121 14.7379 28.3272L14.5916 28.2854C14.6133 28.2019 14.6268 28.1132 14.6566 28.0244C14.8218 27.5964 14.8976 27.2414 14.5862 26.7742C14.3155 26.3801 14.264 25.8346 14.1909 25.3439C14.1286 24.9367 14.1909 24.5113 14.1692 24.0963C14.0501 22.6059 13.8985 21.1182 13.7793 19.6304C13.7322 19.4176 13.7248 19.1984 13.7577 18.9831C14.3371 17.1561 13.8416 15.2768 14.0284 13.4341C14.1015 12.7529 14.1665 12.0743 14.2099 11.3931C14.2195 11.3069 14.21 11.2197 14.182 11.1374C14.154 11.055 14.1081 10.9794 14.0474 10.9154C13.9621 10.8882 13.8715 10.8799 13.7824 10.8912C13.6933 10.9025 13.608 10.9331 13.5329 10.9807C13.2104 11.1795 12.9156 11.4172 12.6556 11.688C11.9462 12.4693 11.2584 13.2662 10.5923 14.0788C10.4382 14.2817 10.3556 14.5269 10.3568 14.7783C10.3866 16.0181 10.1591 17.2657 10.4515 18.5003C10.6059 19.1476 10.7954 19.7897 10.8956 20.4448C10.9688 21.068 11.0095 21.6943 11.0175 22.3214C11.0445 22.9661 10.8144 23.757 11.1231 24.2242C11.54 24.8506 11.3938 25.383 11.3938 25.9833C11.4234 26.3071 11.4869 26.6272 11.5834 26.9386L12.1005 26.6776C12.0058 27.1083 11.9462 27.4137 11.865 27.7217C11.8433 27.8026 11.7133 27.8574 11.6971 27.9383C11.494 28.8649 11.2476 29.7888 11.1285 30.7259C11.0562 31.4799 11.0463 32.2384 11.0987 32.994C11.1439 33.2311 11.2564 33.4516 11.4236 33.6309C11.5888 33.8449 11.6077 34.3825 11.4074 34.5339C11.0364 34.7949 10.66 35.0716 10.2945 35.3483C9.92895 35.6249 9.6311 35.6354 9.4551 35.2152C9.33414 34.8521 9.24359 34.4803 9.18433 34.1033C9.18433 34.0589 9.21682 34.0015 9.20058 33.9623C8.69423 32.8296 9.13559 31.6864 9.15184 30.5484C9.15184 30.303 9.23848 30.0263 8.84586 29.9663C8.79291 29.83 8.79291 29.6798 8.84586 29.5435C9.08685 29.2825 9.25202 29.0606 8.9298 28.737C8.8389 28.5941 8.80073 28.4258 8.82149 28.2593C8.83774 27.4398 8.82149 26.615 8.91897 25.8007C9.01645 24.9863 9.22765 24.2581 9.34408 23.4803C9.32942 23.2587 9.27443 23.0414 9.18162 22.8382C9.14286 22.7158 9.11745 22.5898 9.10581 22.4624C9.04865 20.3268 8.77017 18.2021 8.27454 16.1199C8.12832 15.5535 7.90629 15.0054 7.77632 14.4364C7.713 14.0919 7.69662 13.7409 7.72758 13.3924C7.74382 13.0191 7.59219 12.9017 7.22665 12.9878C6.38184 13.1862 5.7699 13.7291 5.18232 14.2928C5.06484 14.4526 5.01541 14.6497 5.04423 14.8436C5.22835 16.501 5.4206 18.161 5.63992 19.8157C5.69408 20.236 5.9459 20.6405 5.95131 21.0581C5.96756 21.9691 5.83217 22.8852 5.86466 23.7961C5.88633 24.4669 6.11378 25.1273 6.18688 25.798C6.25458 26.4218 6.25187 27.0561 6.25999 27.6877C6.25999 28.4707 6.25999 29.2538 6.25999 30.0368C6.26914 30.115 6.29013 30.1915 6.32227 30.2639L7.05877 30.4518L7.04252 30.5771L6.57138 30.6971C6.57138 31.5402 6.44412 32.4146 6.6147 33.2315C6.68343 33.7528 6.78836 34.269 6.9288 34.7767C7.31329 35.792 7.04252 36.8386 7.39182 37.927C6.6824 37.6399 6.05691 37.405 5.46392 37.1283C5.36482 37.0716 5.27838 36.9965 5.2096 36.9073C5.14081 36.8182 5.09104 36.7168 5.06318 36.6089C4.97924 36.2931 5.01173 35.9616 4.67327 35.732C4.6137 35.6928 4.69493 35.3378 4.80865 35.2099C4.95251 35.0441 5.05511 34.8488 5.10861 34.6389C5.16211 34.429 5.1651 34.2101 5.11733 33.9989C5.03069 33.3124 4.92238 32.626 4.90613 31.9395C4.88989 31.2531 5.0009 30.5484 5.00632 29.8515C5.00761 29.3913 4.82872 28.9476 4.50539 28.6091C4.27253 28.3481 4.33751 27.7712 4.39167 27.3536C4.44582 26.936 4.77616 26.5184 4.78429 26.0982C4.80865 24.6313 4.81136 23.1566 4.70035 21.695C4.63265 20.7919 4.31585 19.9071 4.1588 19.004C4.06674 18.435 4.10736 17.8478 4.05049 17.2683C3.89345 15.6423 3.77972 14.0057 3.50895 12.3979C3.41689 11.8759 2.90784 11.3539 2.47189 10.9467C1.80309 10.3255 1.01785 9.81658 0.305717 9.2267C0.132423 9.08054 0.0890994 8.79865 -0.0137939 8.5794C0.175746 8.55852 0.435688 8.45152 0.543997 8.52982C1.23176 9.03617 1.8762 9.59212 2.55313 10.1089C2.83093 10.2907 3.12032 10.4555 3.41959 10.6022C3.90227 7.605 3.85466 4.55064 3.27879 1.56876C3.50904 1.49233 3.76123 1.50612 3.98103 1.60718C4.20083 1.70823 4.37066 1.88847 4.45394 2.10905C4.51194 2.33525 4.53925 2.56774 4.53518 2.80072C4.53518 3.74034 4.48914 4.67996 4.47561 5.61959C4.47561 5.84666 4.5108 6.07635 4.4025 6.1416C5.14441 5.55173 5.93236 5.00361 6.6147 4.35893C6.88039 4.11394 7.07059 3.80287 7.16426 3.46015C7.25792 3.11742 7.2514 2.75641 7.14542 2.41704C7.10905 2.288 7.10905 2.15195 7.14542 2.02291C7.16325 1.96142 7.19411 1.90416 7.23606 1.85475C7.278 1.80533 7.33012 1.76484 7.38911 1.73581C7.45287 1.73005 7.5171 1.73996 7.57582 1.76461C7.63453 1.78925 7.68581 1.82783 7.72487 1.87675C7.96068 2.22648 8.14306 2.60711 8.26641 3.00691C8.51552 4.18144 8.71319 5.35597 8.8919 6.554C9.0002 7.27438 8.98667 7.29526 9.70421 7.23C9.70421 7.2561 9.72587 7.30308 9.70421 7.31091C9.08956 7.74941 9.14101 8.31841 9.35221 8.92133C9.51738 9.39636 9.68526 9.86879 9.83418 10.349C9.84523 10.4157 9.87112 10.4792 9.91006 10.5352C9.949 10.5913 10.0001 10.6385 10.0598 10.6738C10.1195 10.709 10.1863 10.7313 10.2558 10.7392C10.3253 10.7472 10.3958 10.7405 10.4624 10.7197C11.077 10.6022 11.6863 10.4587 12.3009 10.3464C12.6258 10.2864 12.9589 10.2655 13.2811 10.195C13.4096 10.1631 13.5196 10.0833 13.5871 9.97319C13.6142 9.91838 13.5004 9.76699 13.4165 9.69652C12.9384 9.36393 12.486 8.99844 12.0626 8.6029C11.3857 7.8512 10.5463 7.2274 10.1239 6.25384C9.67713 5.24113 9.1058 4.28063 8.68611 3.26009C8.46678 2.73808 8.45866 2.12732 8.34494 1.50351L9.04624 1.38605C9.15235 2.27617 9.30599 3.16042 9.50655 4.03528C9.75505 4.76384 10.0704 5.4696 10.4488 6.14421C10.503 6.21733 10.5751 6.27635 10.6588 6.31599C10.7424 6.35562 10.835 6.37462 10.9281 6.37129C11.7756 6.17814 12.615 5.95368 13.449 5.70833C13.7875 5.60915 13.847 4.95141 13.6385 4.4816C13.2107 3.52371 12.8018 2.55537 12.4092 1.58442C12.3576 1.38203 12.3321 1.17426 12.3334 0.965837L12.4932 0.887538C12.6486 1.05935 12.7872 1.24457 12.9074 1.44087C13.143 1.92112 13.3488 2.41704 13.56 2.91034C13.6873 3.20789 13.9093 3.24704 14.134 3.05651C14.5944 2.65977 15.0086 2.21345 15.4717 1.82194C15.9085 1.44931 16.3668 1.10075 16.8445 0.777912C17.8274 0.117564 17.8382 0.128008 18.2958 1.2138C18.442 1.56616 18.5287 2.06467 19.0377 1.97332C19.5468 1.88197 19.3302 1.34691 19.4087 0.999769C19.4764 0.702221 19.5062 0.399448 19.5549 0.0966797L19.7553 0.125395C19.7573 0.299882 19.769 0.474139 19.7905 0.647408C19.8354 0.837962 19.8905 1.02614 19.9556 1.21118C20.9683 1.0076 21.7481 0.206306 22.796 0.198476L22.8773 0.357687C22.2382 0.772688 21.5965 1.18509 20.9602 1.60531C20.7116 1.75657 20.4794 1.93145 20.267 2.12732C20.1784 2.21939 20.11 2.32784 20.066 2.44611C20.0221 2.56438 20.0035 2.69001 20.0113 2.81541C20.0192 2.94081 20.0533 3.06338 20.1117 3.1757C20.1701 3.28802 20.2515 3.38776 20.351 3.46889C20.4601 3.57616 20.5788 3.67398 20.7057 3.76122C21.4368 4.21537 21.6155 5.02711 22.0595 5.65874C22.2035 5.8023 22.3686 5.92455 22.5496 6.02154C22.6183 5.86482 22.6718 5.7023 22.7094 5.53607C22.9314 3.86824 23.0695 2.18474 23.7925 0.613476C23.8424 0.527391 23.8994 0.44534 23.9631 0.368129L24.1282 0.415108C24.0632 0.877091 24.0226 1.34691 23.9252 1.80367C23.7085 2.80071 23.3836 3.77949 23.2563 4.78437C23.1793 5.54592 23.1984 6.31367 23.3132 7.07078C23.5298 8.8378 23.8168 10.597 24.0443 12.3614C24.0679 12.7445 24.0387 13.1289 23.9576 13.5046C23.8006 14.5225 23.5461 15.53 23.4703 16.5506C23.3782 17.7721 23.3971 19.004 23.4296 20.2308C23.4757 22.0761 23.5786 23.9214 23.649 25.7667C23.6535 26 23.6363 26.2333 23.5975 26.4636C23.4476 27.1139 23.4774 27.7907 23.6842 28.4264C23.8277 28.8101 23.7085 29.2851 23.6002 29.7314V28.322L23.4378 28.2933C23.3489 28.5067 23.2898 28.7305 23.2618 28.9588C23.2618 29.4808 23.362 30.0029 23.3592 30.5066C23.3592 31.7177 23.3213 32.9261 23.3051 34.1372C23.3173 34.2966 23.339 34.4552 23.3701 34.6122L22.6471 34.8732C22.1056 33.8814 22.0595 32.8191 22.0298 31.7594C21.9946 30.3578 22.0541 28.9536 21.9864 27.5546C21.9323 26.4323 21.7509 25.3178 21.6236 24.2007C21.5377 23.7341 21.4861 23.2622 21.4693 22.7886C21.4693 22.5276 21.7563 22.2979 21.8185 22.0343C21.8998 21.6898 22.0189 21.2643 21.8754 20.9903C21.6967 20.6405 21.7861 20.3326 21.759 20.0037C21.6723 18.9779 21.5559 17.9548 21.4395 16.9316C21.3611 16.5876 21.3077 16.2388 21.2797 15.8876C21.3353 15.5745 21.426 15.2682 21.5505 14.9741C21.6582 14.6991 21.7309 14.4125 21.7671 14.1206C21.7605 13.5115 21.8416 12.9046 22.0081 12.317C22.2139 11.6358 22.0974 10.8658 22.1137 10.1324C22.1326 9.30762 22.046 8.46979 22.1868 7.66328C22.3276 6.85676 22.027 6.20686 21.5234 5.60654C21.2743 5.3116 21.0252 5.01928 20.7598 4.73739C20.6355 4.63661 20.5002 4.54909 20.3564 4.47638C20.1668 5.46821 20.0044 6.37129 20.2806 7.40487C19.674 7.97387 19.8257 8.87696 19.7905 9.72523C19.7634 10.3751 19.7905 10.9859 19.3897 11.5967C19.119 12.0169 19.0621 12.5989 19.0134 13.1183C18.8684 14.3314 18.7933 15.5513 18.7886 16.7724C18.8103 17.8164 19.1839 18.8422 19.1514 19.868C19.119 20.8441 19.3139 21.7785 19.3762 22.739C19.4207 23.0962 19.5586 23.4365 19.7769 23.7283L19.8446 23.4438C19.9042 23.6108 19.9638 23.7726 20.0233 23.9266L19.5738 23.9501C20.221 26.2287 19.8582 28.5386 20.156 30.7911C20.2995 31.8717 20.091 32.9783 20.4972 34.038C20.6976 34.56 20.286 34.9777 19.98 35.3718C19.9304 35.4014 19.8738 35.4184 19.8156 35.4211C19.7573 35.4238 19.6993 35.4123 19.647 35.3874C19.5464 35.305 19.4833 35.1879 19.471 35.0612C19.3708 34.0328 19.406 32.9731 19.165 31.9787C18.7832 30.4126 18.8942 28.8466 18.8536 27.2649C18.8373 26.7664 18.5693 26.2365 18.6857 25.7824C19.0486 24.3782 18.3743 23.1462 18.1442 21.836C17.914 20.5257 17.3779 19.2937 17.5133 17.9626C17.5837 17.2735 17.8599 16.6028 17.9248 15.9137C18.0386 14.687 18.1063 13.4524 18.0927 12.2205C18.0927 11.8785 17.7434 11.5392 17.5512 11.1999C17.444 11.0548 17.3532 10.8991 17.2804 10.7353C17.1315 10.2394 17.0421 9.72523 16.8634 9.23976C16.7162 8.94913 16.5374 8.6744 16.33 8.42019V8.42019ZM4.97382 11.4949C5.4558 11.6019 5.58848 11.2913 5.65346 11.0407C5.78614 10.5422 6.14898 10.3308 6.5768 10.0959C7.06148 9.83486 7.61656 9.51903 7.64364 8.88479C7.67884 8.06261 7.65988 7.23783 7.62197 6.41305C7.61264 6.07902 7.53248 5.75036 7.3864 5.44732C7.25643 5.18631 6.95588 4.99578 6.67427 5.30899C6.07316 5.97456 5.46934 6.64274 4.92509 7.35268C4.70896 7.62857 4.59203 7.96485 4.59204 8.31057C4.68681 9.37809 4.84115 10.4404 4.97382 11.4949ZM18.9267 3.74034C18.841 3.77127 18.7592 3.81155 18.683 3.8604C17.581 4.77915 17.1288 6.10767 16.4139 7.26915C16.2786 7.4884 16.4139 7.70503 16.7416 7.83815C17.4672 8.14352 18.22 8.00258 18.9592 8.06783C19.4385 8.10959 19.5711 7.91906 19.582 7.49623C19.5639 6.73582 19.6129 5.9753 19.7282 5.22286C19.7838 5.02349 19.7779 4.8128 19.711 4.61666C19.6442 4.42052 19.5193 4.24748 19.3518 4.1188L18.9267 3.74034ZM14.4156 4.63298C14.5588 4.98068 14.7289 5.31747 14.9247 5.64047C15.255 6.09984 15.6531 6.06852 16.024 5.64047C16.3625 5.2594 16.7578 4.92531 17.1071 4.54685C17.5214 4.09009 17.9194 3.61245 18.2958 3.12959C18.331 3.07185 18.3533 3.00765 18.3612 2.94113C18.3691 2.8746 18.3625 2.80722 18.3418 2.74329C18.2199 2.3446 18.0734 1.95327 17.9032 1.57138C17.7705 1.28427 17.562 1.1381 17.2696 1.4487C17.1218 1.60723 16.9636 1.75631 16.7957 1.89502C16.2731 2.31263 15.6747 2.66238 15.2361 3.15046C14.8624 3.56546 14.6837 4.12663 14.4156 4.63298ZM7.70321 9.89749C7.43232 10.1069 7.17883 10.3364 6.94504 10.5839C6.54972 11.0642 6.21938 11.5967 5.82405 12.0769C5.36915 12.6328 4.98736 13.1888 5.2825 13.9901C5.4206 13.9353 5.61014 13.9222 5.68866 13.823C6.13002 13.2749 6.80424 13.1679 7.41348 12.9382C7.54616 12.886 7.72487 12.7999 7.76278 12.6929C8.03808 11.8129 8.06054 10.8775 7.82776 9.98624C7.82776 9.98624 7.80339 9.96536 7.70321 9.89749ZM10.8496 7.21434C11.2557 8.50633 12.4228 8.74645 13.2865 9.32589C13.3526 9.35602 13.4256 9.36944 13.4985 9.36487C13.5715 9.3603 13.642 9.33791 13.7035 9.29979C13.782 9.22148 13.755 9.03878 13.7495 8.8874C13.7126 8.44464 13.7 8.00031 13.7116 7.55626C13.7468 7.14126 13.6467 6.96638 13.1945 6.95855C12.7433 6.93698 12.2912 6.94134 11.8406 6.97161C11.504 7.02647 11.1725 7.10765 10.8496 7.21434V7.21434ZM17.2994 8.64205C17.2831 8.70208 17.2642 8.76211 17.2479 8.82475C17.7001 9.38853 18.1388 9.96797 18.618 10.5109C18.7886 10.7014 19.1108 10.7432 19.1758 10.4117C19.2549 9.93258 19.2947 9.44821 19.295 8.96309C19.3056 8.89514 19.2998 8.82574 19.2778 8.76035C19.2559 8.69496 19.2186 8.63537 19.1687 8.58628C19.1188 8.53719 19.0578 8.49993 18.9904 8.47745C18.923 8.45497 18.8512 8.44788 18.7805 8.45674C18.285 8.49067 17.7922 8.5768 17.2994 8.64205V8.64205ZM12.3145 11.6332L12.2982 11.474C11.7052 11.5288 11.1149 11.5784 10.5246 11.6515C10.4488 11.6515 10.3162 11.8237 10.3324 11.8811C10.4542 12.2961 10.6032 12.7033 10.7304 13.0635L12.3145 11.6332Z" fill="white"/>
<path fill-rule="evenodd" clip-rule="evenodd" d="M30.5678 22.0787L30.1995 22.491C30.1345 22.2118 30.0858 21.9977 30.0289 21.7602L29.463 21.8699C29.482 21.7524 29.4982 21.6637 29.5253 21.5044L28.7617 21.7498C28.9052 21.1416 29.0325 20.6092 29.157 20.0793L30.2131 19.9541C30.2889 19.4686 30.362 18.9936 30.4567 18.388L31.2474 18.9805C31.3178 18.4141 31.418 17.9365 31.4342 17.4458C31.4613 16.6001 31.4045 15.7492 31.4342 14.9036C31.4992 13.3375 31.6129 11.7715 31.6888 10.1924C31.7131 9.67039 31.6671 9.16142 31.6888 8.64724C31.7158 7.9634 31.8404 7.27695 31.8079 6.59833C31.751 5.36377 31.5994 4.13443 31.5046 2.90247C31.464 2.38046 31.4667 1.83235 31.4505 1.29728C31.4505 0.811809 31.6861 0.631713 32.1816 0.618663C33.0453 0.597782 33.0914 0.618666 33.1049 1.43823C33.1049 1.90282 33.1563 2.36741 33.1861 2.832C33.2484 3.79512 33.373 4.76085 33.3513 5.72397C33.3513 6.26686 33.0805 6.80715 32.9479 7.34743L33.0887 7.45444C33.4098 7.31428 33.7163 7.14471 34.0039 6.94808C34.6855 6.40736 35.3338 5.82868 35.9453 5.215C36.1023 5.05317 36.0969 4.63035 36.0022 4.385C35.5527 3.21569 35.2142 2.03593 35.3442 0.775268C35.837 0.673476 36.1321 0.866627 35.9643 1.2216C35.6935 1.78015 35.9182 2.28128 36.0482 2.77458C36.2404 3.51323 36.5437 4.22317 36.8226 5.00358C37.3641 4.77651 37.6864 4.52072 37.7568 4.00392C37.8569 3.25744 37.9815 2.51097 38.1304 1.77232C38.2011 1.51519 38.3446 1.28205 38.5447 1.09892C38.783 2.1821 38.3037 3.18697 38.236 4.31713C39.8607 3.67767 39.7496 2.15339 40.348 0.924044C40.3724 1.11458 40.386 1.20854 40.3995 1.29989C40.4428 1.62093 40.5701 1.80103 40.9573 1.67313C41.0602 1.6392 41.201 1.7175 41.3255 1.74621C41.2741 1.86106 41.2578 2.03333 41.1685 2.08553C40.4916 2.47443 40.4347 3.08779 40.4455 3.75075C40.4455 4.35106 40.386 4.95399 40.4022 5.55692C40.4239 6.37387 40.5403 7.19082 40.5241 8.00778C40.5078 8.90825 40.4103 9.80872 40.302 10.704C40.1693 11.8002 39.9771 12.8886 39.8309 13.9822C39.7009 14.961 39.6007 15.945 39.4843 16.9316C39.9852 17.1535 40.0258 17.3962 39.6007 18.0357L39.5195 17.4745H39.3462C39.3056 17.8164 39.2677 18.1557 39.2298 18.4976C39.0387 18.3066 38.8998 18.0728 38.8256 17.8172C38.7514 17.5616 38.7442 17.2923 38.8046 17.0334C38.9644 16.1669 39.2027 15.3134 39.3787 14.4494C39.5168 13.776 39.6088 13.0948 39.7171 12.4162C39.7374 12.3013 39.7509 12.1854 39.7578 12.069C39.7821 11.6279 39.8119 11.1895 39.82 10.7483C39.82 10.1533 39.82 9.55815 39.82 8.96306C39.7984 8.26878 39.9121 7.57189 39.6007 6.875C39.4789 6.61399 39.6007 6.22248 39.6738 5.89884C39.8173 5.215 40.0069 4.53899 40.1585 3.85516C40.1777 3.66594 40.1777 3.47537 40.1585 3.28615C40.0394 3.30181 39.9527 3.28616 39.9121 3.32531C38.6314 4.36934 37.8109 5.72397 37.9084 7.29001C38.014 9.0257 37.4914 10.6231 37.2721 12.2857C37.1475 13.2253 37.1638 14.1832 37.0988 15.1307C37.0473 15.898 36.9661 16.6602 36.9147 17.4275C36.8822 17.9052 36.9147 18.3854 36.8551 18.8604C36.8226 19.1867 37.1394 19.5808 36.6601 19.8497C36.5924 19.8888 36.6033 20.1498 36.6601 20.2829C37.0528 21.3426 36.9309 22.4441 37.0121 23.5299C37.067 24.0907 36.9542 24.6549 36.6872 25.1559C36.4766 25.6696 36.3673 26.2166 36.365 26.7689C36.2892 27.6694 36.3108 28.5777 36.235 29.4808C36.1755 30.1855 35.9399 30.8381 35.1898 31.1617C34.9816 31.2339 34.768 31.2906 34.5508 31.3314C34.5508 30.0263 34.5237 28.797 34.5508 27.5598C34.6212 24.7757 34.7115 21.9917 34.8216 19.2076C34.8432 18.8438 34.9427 18.4883 35.114 18.1636C35.6556 17.1195 35.6935 16.0024 35.8397 14.8905C36.078 13.1131 36.3812 11.3434 36.6006 9.56599C36.7163 8.77577 36.7715 7.97841 36.7657 7.18038C36.7657 6.76799 36.522 6.36082 36.3677 5.87535C36.1791 5.92941 35.9974 6.00383 35.8262 6.0972C35.1492 6.56702 34.4822 7.04727 33.8252 7.53796C33.588 7.71184 33.3986 7.93905 33.2735 8.19976C33.1484 8.46046 33.0915 8.74672 33.1076 9.03353C33.1076 9.87136 33.0832 10.7118 33.1239 11.5496C33.177 11.9056 33.2677 12.2554 33.3946 12.5937H33.5652C33.6654 12.411 33.7656 12.2283 33.8685 12.0456L33.9714 12.2022L34.0688 12.9852C33.7981 13.0008 33.3919 12.9486 33.3513 13.04C33.2049 13.3691 33.14 13.7265 33.1618 14.084C33.2349 14.914 33.4136 15.7388 33.4921 16.5688C33.491 16.9515 33.4539 17.3332 33.3811 17.7094C33.3811 17.7407 33.3459 17.772 33.3432 17.8034C33.3053 19.0432 32.7556 20.1681 32.4848 21.3557C32.4561 21.678 32.4892 22.0027 32.5823 22.3136C32.6635 22.7547 32.7908 23.1462 32.3982 23.5742C32.1762 23.8196 32.2141 24.2946 32.1599 24.6678C32.0706 25.289 31.9731 25.9102 31.9243 26.5341C31.8617 27.5426 31.9089 28.5548 32.0651 29.5539C32.1762 30.3735 32.0841 31.2217 32.0841 32.057C32.0841 32.2214 32.1085 32.3858 32.1166 32.5503C32.1166 32.7826 32.2195 33.054 32.1166 33.2419C31.7646 33.9675 31.9216 34.7088 31.9162 35.4579C31.8837 36.1339 31.7738 36.8044 31.5886 37.4572C31.5435 37.5621 31.4718 37.6544 31.38 37.7256C31.2882 37.7968 31.1793 37.8445 31.0633 37.8644C30.9089 37.8644 30.7411 37.5799 30.6003 37.405C30.4595 37.2301 30.3484 37.0396 30.2239 36.8543L30.1291 36.9378C30.246 36.7084 30.3316 36.4654 30.3836 36.2148C30.4161 35.7659 30.3836 35.3117 30.362 34.8602C30.315 32.6399 30.2708 30.4178 30.2293 28.1941C30.2293 27.7242 30.2293 27.2544 30.2428 26.7846C30.2428 26.6071 30.3078 26.4296 30.3159 26.2626C30.3159 26.0016 30.3159 25.7641 30.3159 25.5161C30.3159 25.2682 30.0858 24.9445 30.5434 24.8218C30.5813 24.8218 30.6057 24.6679 30.5948 24.5922C30.5163 24.0493 30.7952 23.4776 30.362 22.9478C30.2483 22.8356 30.4784 22.4336 30.5678 22.0787Z" fill="white"/>
<path fill-rule="evenodd" clip-rule="evenodd" d="M27.5101 22.3185C26.9685 22.2167 26.9685 21.9765 27.1039 21.6425C27.4722 20.7028 27.705 19.7397 27.437 18.7322C27.3975 18.6182 27.3468 18.508 27.2853 18.4034V16.6625H27.4234C27.3936 16.8686 27.3665 17.0774 27.3368 17.2862L27.4857 17.315C27.5788 16.9813 27.6431 16.6409 27.6779 16.297C27.7023 15.3235 27.6346 14.3421 27.6942 13.3685C27.7483 12.4681 27.9162 11.5702 28.0435 10.6723C28.1789 9.71966 28.1437 8.80353 27.5994 7.94221C27.5101 7.79865 27.6644 7.51154 27.7267 7.18268L27.4559 6.86946L28.2032 6.96343C28.2032 6.06035 28.2493 5.19119 28.187 4.32726C28.1437 3.69562 27.1933 2.8369 26.4784 2.69074C26.4243 3.24408 26.3322 3.79219 26.3295 4.34031C26.3295 5.73408 26.278 7.1383 26.3999 8.51642C26.492 9.56045 26.8873 10.581 27.0145 11.6276C27.1389 12.6648 27.0469 13.7155 26.7438 14.7179C26.5073 15.6767 26.3265 16.6474 26.2022 17.6256C26.102 18.205 26.0425 18.7897 25.9315 19.3639C25.8697 19.5614 25.7296 19.7274 25.5415 19.8259C25.5307 19.6363 25.5307 19.4464 25.5415 19.2569C25.7907 16.9078 26.4432 14.59 26.3539 12.2097C26.2997 10.9908 26.0831 9.77708 25.9992 8.55557C25.9152 7.33405 25.8259 6.11776 25.8611 4.90147C25.8827 4.11845 26.1941 3.3537 26.2428 2.57329C26.2618 2.23659 25.945 1.8764 25.7771 1.52926C25.6823 1.33873 25.5767 1.15081 25.4766 0.960271L25.6038 0.884577L26.2916 1.40659C26.427 1.10121 26.5326 0.855867 26.6409 0.60791L26.7167 0.636617C26.7167 0.957656 26.7167 1.27869 26.7167 1.59973C26.7302 2.05911 26.8521 2.46889 27.3449 2.66986C27.3907 2.69525 27.435 2.72314 27.4776 2.75339L28.1978 3.15273C28.2726 2.90186 28.3341 2.64748 28.3819 2.39058C28.4415 2.0069 28.4469 1.60757 28.5227 1.23694C28.5853 1.05486 28.6766 0.883184 28.7935 0.727971L28.9641 0.785393L29.1672 1.67543C29.8685 1.77722 29.8387 0.74624 30.7052 0.824542C30.2638 1.34656 29.8712 1.75895 29.5219 2.21049C29.3576 2.40903 29.2536 2.64753 29.2213 2.89955C29.1672 4.36119 29.1726 5.82805 29.1103 7.28969C29.086 7.87174 28.91 8.44856 28.8666 9.0306C28.8124 9.56137 28.8206 10.0964 28.891 10.6254C29.0507 11.3475 29.0153 12.097 28.7881 12.8022C28.6392 13.2198 28.6852 13.7 28.6175 14.1463C28.5065 14.8928 28.3467 15.6315 28.2682 16.3806C28.2122 17.0108 28.224 17.6449 28.3034 18.2729C28.3901 18.9358 28.6283 19.5779 28.7312 20.2435C28.7342 20.5404 28.6829 20.8355 28.5796 21.1152C28.2547 22.4203 28.0218 23.7253 28.2059 25.0643C28.2439 25.3649 28.2655 25.6672 28.2709 25.97C28.2953 26.7947 28.0624 26.954 27.1202 26.7112C27.3314 25.294 26.6192 23.801 27.5101 22.3185Z" fill="white"/>
<path fill-rule="evenodd" clip-rule="evenodd" d="M44.2685 23.2295L43.7621 22.7754L43.5293 23.2974H43.3479C43.3479 22.7597 43.3479 22.222 43.3479 21.687C43.3479 20.8674 43.3262 20.0504 43.3343 19.2309C43.3343 18.2782 43.3479 17.3229 43.4101 16.3598C43.4778 15.3158 43.6376 14.2509 43.6809 13.1938C43.6809 12.9328 43.448 12.6457 43.3208 12.3716L43.05 12.4108C42.939 13.7158 42.6547 15.0495 42.7495 16.352C42.9173 18.6593 42.522 20.8569 41.8776 23.0468C41.6068 23.9969 41.2873 24.9391 41.3198 25.9596C41.2997 26.5383 41.2153 27.1132 41.068 27.6745C41.0436 27.805 40.8865 27.9146 40.7972 28.032L40.5508 27.9381C40.6997 26.928 40.8216 25.9153 41.003 24.913C41.2088 23.7881 41.4633 22.6709 41.7124 21.5538C41.8315 21.0162 41.9832 20.4889 42.1023 19.9513C42.1185 19.8756 41.9615 19.7659 41.8857 19.672L41.7422 19.7581V18.5992H41.8451C41.8694 18.7898 41.8965 18.9803 41.929 19.2126C42.2431 18.8733 42.1998 18.5575 41.8478 18.0929C41.7985 18.027 41.7649 17.9514 41.7494 17.8715C41.734 17.7917 41.737 17.7095 41.7584 17.6309C42.1348 17.0541 42.0915 16.4094 42.1781 15.7804C42.4489 13.862 42.744 11.9488 43.0094 10.0382C43.2612 8.21117 43.4535 6.38412 43.0635 4.55707C42.9471 4.00895 42.633 3.51304 42.4083 2.99103C42.1835 2.46901 41.975 1.98876 41.7557 1.49024L41.9534 1.38583C42.3144 1.87478 42.6682 2.36113 43.0148 2.84486L43.1475 2.80571C43.1854 2.22105 43.2233 1.639 43.2639 0.994317C44.0762 1.4302 43.5103 2.10621 43.7405 2.73785L44.8506 1.23706L44.9671 1.31014C44.634 1.90002 44.19 2.45857 43.9923 3.0902C43.8114 3.7503 43.7438 4.43447 43.7919 5.11562C43.8136 5.72899 43.4995 6.43371 44.0437 7.01053C44.0871 6.99226 43.9679 7.01053 43.9598 7.05229C43.7676 8.1955 43.5618 9.3361 43.4183 10.4845C43.3641 11.0301 43.3505 11.5788 43.3776 12.1263C43.4137 12.2918 43.4797 12.45 43.5726 12.5935L43.7405 12.5804C43.7946 12.3325 43.8704 12.0845 43.9002 11.8339C44.2793 8.80886 44.6476 5.7838 45.0294 2.76134C45.0862 2.29675 45.2081 1.84259 45.2758 1.378C45.3164 1.09089 45.311 0.795955 45.3272 0.443596L45.8552 0.266113C45.9208 0.352124 45.9745 0.446001 46.015 0.545385C46.0502 0.691549 46.1151 0.882087 46.0502 0.9891C45.7889 1.38646 45.6647 1.85332 45.6954 2.32285C45.6931 2.68897 45.6504 3.05381 45.5682 3.41124C45.2956 5.22089 45.0248 7.0288 44.7559 8.83497C44.7545 8.85147 44.7545 8.86805 44.7559 8.88456C44.6503 11.4215 43.9923 13.8985 43.8352 16.4277C43.8414 16.6254 43.8865 16.8203 43.9679 17.0019C44.0762 17.3229 44.2387 17.5761 44.0844 17.9885C43.9002 18.4818 43.9571 19.0612 43.9246 19.6041C43.8759 20.4472 43.819 21.2902 43.8163 22.1333C43.857 22.3958 43.9538 22.6473 44.1006 22.8719C44.1772 22.9866 44.2681 23.0918 44.3714 23.1851L44.2685 23.2295Z" fill="white"/>
<path fill-rule="evenodd" clip-rule="evenodd" d="M50.0464 0.733659L49.6998 0.764987L50.3117 0.329102C50.2549 1.19564 50.1547 1.94473 50.1736 2.69121C50.1736 3.0775 50.3984 3.46118 50.531 3.84225C50.531 3.84225 50.6881 3.80832 50.8018 3.78744L50.8858 4.12153H51.0428C51.1019 3.90813 51.1221 3.68646 51.1024 3.4664C50.9291 2.83477 50.9426 2.75125 51.5979 2.33625C51.3975 2.85826 51.0699 3.30197 51.5383 3.94405C51.6277 3.75612 51.7008 3.60735 51.7712 3.46118L51.866 3.51339C51.8199 3.92317 51.7712 4.33295 51.7197 4.76361C51.5139 4.93065 50.9399 4.82886 51.1646 5.45789L51.5139 5.0481L51.6412 5.0716C51.5977 5.39629 51.5289 5.71737 51.4354 6.0321C51.2296 6.59588 50.9995 7.13877 51.2513 7.75736C51.2869 7.95673 51.2739 8.16135 51.2134 8.35506C51.2134 8.37856 51.078 8.38639 50.921 8.42293C50.921 8.89535 50.9345 9.44608 50.921 9.98897C50.902 10.6728 50.8587 11.3593 50.8262 12.0431C50.8262 12.077 50.8262 12.1292 50.8262 12.1423C50.1845 12.6121 50.4065 13.3325 50.2846 13.9432C50.0626 15.0212 49.8568 16.107 49.7187 17.198C49.698 17.6974 49.7298 18.1976 49.8135 18.6909C49.8606 18.9951 49.867 19.3039 49.8325 19.6097L49.6673 19.1921C49.6185 19.2704 49.5698 19.3121 49.5698 19.3513C49.5698 20.3144 49.6212 21.2775 49.5698 22.2224C49.5 22.7818 49.397 23.3369 49.2611 23.885C49.1474 24.5636 49.0418 25.2448 48.9579 25.9261C48.8333 26.9048 48.7331 27.8836 48.6167 28.865C48.6085 28.9822 48.5673 29.095 48.4975 29.1913C48.3891 29.2807 48.2678 29.3545 48.1374 29.4105C48.0914 29.2904 47.9939 29.1678 48.0047 29.0555C48.1537 27.7113 48.2755 26.3619 48.484 25.0256C48.8168 22.8258 48.9553 20.6027 48.8983 18.3803C48.882 17.7774 48.7629 17.1614 48.8604 16.582C49.031 15.5745 49.3532 14.5931 49.5779 13.5935C49.6138 13.313 49.6065 13.0289 49.5563 12.7504C49.5265 12.4163 49.4398 12.0875 49.4398 11.756C49.4398 11.5837 49.3776 11.3018 49.7539 11.2914C49.8406 11.2914 49.9678 11.0304 49.9949 10.8764C50.0581 10.4654 50.0997 10.0516 50.1195 9.63661C50.1899 8.22717 50.2982 6.81513 50.2928 5.40569C50.2928 4.69314 50.0653 3.98581 49.9516 3.27587C49.8432 2.78255 49.7771 2.28146 49.7539 1.77769C49.8058 1.41928 49.9041 1.06855 50.0464 0.733659Z" fill="white"/>
<path fill-rule="evenodd" clip-rule="evenodd" d="M29.3818 10.2078C29.3818 9.23425 29.3818 8.26331 29.4035 7.28975C29.4035 7.19057 29.6743 7.05745 29.8557 7.02874C29.9779 7.01582 30.1016 7.03195 30.2158 7.07572L29.5118 10.26L29.3818 10.2078Z" fill="white"/>
<path fill-rule="evenodd" clip-rule="evenodd" d="M47.1982 23.6838V22.7755L47.8264 22.6006C47.756 23.0391 47.6992 23.4097 47.6396 23.7856L47.1982 23.6838Z" fill="white"/>
<path fill-rule="evenodd" clip-rule="evenodd" d="M50.6533 14.4074C50.7183 13.9375 50.7643 13.6035 50.8131 13.272H50.8862C50.9268 13.4495 50.9674 13.6269 51.0297 13.8906L51.3221 13.4286C51.3465 13.7261 51.4413 13.9767 51.36 14.055C51.1429 14.204 50.905 14.3226 50.6533 14.4074V14.4074Z" fill="white"/>
<path fill-rule="evenodd" clip-rule="evenodd" d="M20.8088 28.4707L21.3693 28.5255V29.1493C20.6057 28.9405 20.6057 28.9405 20.8088 28.4707Z" fill="white"/>
<path fill-rule="evenodd" clip-rule="evenodd" d="M50.3911 22.1177L51.0112 22.6553L50.1826 22.8041C50.2503 22.5823 50.3045 22.3996 50.3911 22.1177Z" fill="white"/>
<path fill-rule="evenodd" clip-rule="evenodd" d="M48.322 22.3499H47.3987C47.3987 22.3081 47.3987 22.2637 47.3987 22.2194L48.3274 22.1567C48.3193 22.222 48.322 22.2872 48.322 22.3499Z" fill="white"/>
<path d="M159 12.1472C159 8.94979 157.682 5.88333 155.337 3.62241C152.991 1.36148 149.81 0.0913086 146.493 0.0913086H128.219V38H133.956V24.2057H144.898L152.209 37.9451H158.653L150.931 23.4279C153.304 22.5585 155.347 21.0139 156.788 18.999C158.229 16.9842 159.001 14.5945 159 12.1472V12.1472ZM133.956 5.62205H146.493V5.63509H146.729C148.524 5.63509 150.246 6.32257 151.515 7.54628C152.785 8.76999 153.498 10.4297 153.498 12.1603C153.498 13.8909 152.785 15.5506 151.515 16.7743C150.246 17.998 148.524 18.6854 146.729 18.6854H146.493H133.956V5.62205Z" fill="white"/>
<path d="M74.5652 0H56.2908V37.9139H62.0284V24.1118H74.5652C77.8822 24.1118 81.0634 22.8417 83.4089 20.5807C85.7544 18.3198 87.0721 15.2533 87.0721 12.0559C87.0721 8.85849 85.7544 5.79202 83.4089 3.5311C81.0634 1.27018 77.8822 0 74.5652 0ZM74.8007 18.5759H74.5652V18.5889H62.0284V5.53857H74.5652V5.54901H74.8007C76.5961 5.54901 78.3179 6.23648 79.5874 7.46019C80.8569 8.6839 81.57 10.3436 81.57 12.0742C81.57 13.8048 80.8569 15.4645 79.5874 16.6882C78.3179 17.9119 76.5961 18.5994 74.8007 18.5994V18.5759Z" fill="white"/>
<path d="M118.325 0.0678711V22.029C118.325 24.7599 117.199 27.3789 115.196 29.3099C113.193 31.2409 110.476 32.3257 107.643 32.3257C104.81 32.3257 102.093 31.2409 100.09 29.3099C98.0864 27.3789 96.961 24.7599 96.961 22.029V0.0678711H91.2314V22.029C91.2314 26.2253 92.9608 30.2498 96.0391 33.217C99.1173 36.1843 103.292 37.8512 107.646 37.8512C111.999 37.8512 116.174 36.1843 119.252 33.217C122.33 30.2498 124.06 26.2253 124.06 22.029V22.029V0.0678711H118.325Z" fill="white"/>
</g>
<defs>
<clipPath id="clip0_2763_532">
<rect width="159" height="38" fill="white"/>
</clipPath>
</defs>
</svg>
